<?xml version="1.0" encoding="utf-8"?>
<Project name="Mon film" themeId="2" version="65540" templateID="SimpleProjectTemplate">
  <MediaItems>
    <MediaItem id="1" filePath="C:\Users\TripsBureauPro\Dropbox\SiteWeb\Videos\2015-11-18 reparation\reparation 001.MP4" arWidth="1280" arHeight="720" duration="79.0613125" songTitle="" songArtist="" songAlbum="" songCopyrightUrl="" songArtistUrl="" songAudioFileUrl="" stabilizationMode="0" mediaItemType="1" />
    <MediaItem id="2" filePath="C:\Users\TripsBureauPro\Dropbox\SiteWeb\Videos\2015-11-18 reparation\reparation 003.MP4" arWidth="1280" arHeight="720" duration="387.88264579999998" songTitle="" songArtist="" songAlbum="" songCopyrightUrl="" songArtistUrl="" songAudioFileUrl="" stabilizationMode="0" mediaItemType="1" />
    <MediaItem id="4" filePath="Z:\4_Musique\Adele 21 (2011)\10 Lovesong.mp3" arWidth="0" arHeight="0" duration="316.488" songTitle="Lovesong" songArtist="Adele" songAlbum="21" songCopyrightUrl="" songArtistUrl="" songAudioFileUrl="" stabilizationMode="0" mediaItemType="3" />
  </MediaItems>
  <Extents>
    <VideoClip extentID="51" gapBefore="0" mediaItemID="2" inTime="153" outTime="165.5" speed="1.5" stabilizationMode="0">
      <Effects>
        <ShaderEffect effectTemplateID="BrightnessEffectTemplate">
          <BoundProperties>
            <BoundPropertyFloat Name="brightness" Value="1.0895694494247437" />
          </BoundProperties>
        </ShaderEffect>
      </Effects>
      <Transitions>
        <ShapeEffect effectTemplateID="BlurTransitionTemplate" duration="1.5">
          <BoundProperties />
        </ShapeEffect>
      </Transitions>
      <BoundProperties>
        <BoundPropertyBool Name="Mute" Value="false" />
        <BoundPropertyInt Name="rotateStepNinety" Value="0" />
        <BoundPropertyFloat Name="Volume" Value="0" />
      </BoundProperties>
    </VideoClip>
    <TitleClip extentID="17" gapBefore="0" duration="7">
      <Effects />
      <Transitions />
      <BoundProperties>
        <BoundPropertyFloatSet Name="diffuseColor">
          <BoundPropertyFloatElement Value="0" />
          <BoundPropertyFloatElement Value="0" />
          <BoundPropertyFloatElement Value="0" />
        </BoundPropertyFloatSet>
        <BoundPropertyFloat Name="transparency" Value="0" />
      </BoundProperties>
    </TitleClip>
    <VideoClip extentID="35" gapBefore="0" mediaItemID="2" inTime="29.033333333333331" outTime="35.783333333333331" speed="1.5" stabilizationMode="0">
      <Effects>
        <ShaderEffect effectTemplateID="BrightnessEffectTemplate">
          <BoundProperties>
            <BoundPropertyFloat Name="brightness" Value="1.0895694494247437" />
          </BoundProperties>
        </ShaderEffect>
      </Effects>
      <Transitions>
        <ShapeEffect effectTemplateID="BlurTransitionTemplate" duration="1.5">
          <BoundProperties />
        </ShapeEffect>
      </Transitions>
      <BoundProperties>
        <BoundPropertyBool Name="Mute" Value="false" />
        <BoundPropertyInt Name="rotateStepNinety" Value="0" />
        <BoundPropertyFloat Name="Volume" Value="0" />
      </BoundProperties>
    </VideoClip>
    <TitleClip extentID="18" gapBefore="0" duration="7">
      <Effects />
      <Transitions />
      <BoundProperties>
        <BoundPropertyFloatSet Name="diffuseColor">
          <BoundPropertyFloatElement Value="0" />
          <BoundPropertyFloatElement Value="0" />
          <BoundPropertyFloatElement Value="0" />
        </BoundPropertyFloatSet>
        <BoundPropertyFloat Name="transparency" Value="0" />
      </BoundProperties>
    </TitleClip>
    <VideoClip extentID="52" gapBefore="0" mediaItemID="2" inTime="326.65000000000003" outTime="387.88264579999998" speed="1.5" stabilizationMode="0">
      <Effects>
        <ShaderEffect effectTemplateID="BrightnessEffectTemplate">
          <BoundProperties>
            <BoundPropertyFloat Name="brightness" Value="1.0895694494247437" />
          </BoundProperties>
        </ShaderEffect>
      </Effects>
      <Transitions>
        <ShapeEffect effectTemplateID="BlurTransitionTemplate" duration="1.5">
          <BoundProperties />
        </ShapeEffect>
      </Transitions>
      <BoundProperties>
        <BoundPropertyBool Name="Mute" Value="false" />
        <BoundPropertyInt Name="rotateStepNinety" Value="0" />
        <BoundPropertyFloat Name="Volume" Value="0" />
      </BoundProperties>
    </VideoClip>
    <TitleClip extentID="19" gapBefore="0" duration="7">
      <Effects />
      <Transitions />
      <BoundProperties>
        <BoundPropertyFloatSet Name="diffuseColor">
          <BoundPropertyFloatElement Value="0" />
          <BoundPropertyFloatElement Value="0" />
          <BoundPropertyFloatElement Value="0" />
        </BoundPropertyFloatSet>
        <BoundPropertyFloat Name="transparency" Value="0" />
      </BoundProperties>
    </TitleClip>
    <TitleClip extentID="53" gapBefore="53.404945714409457" duration="1.5">
      <Effects>
        <TextEffect effectTemplateID="TextEffectCinematicCreditsRightTemplate" TextScriptId="16">
          <BoundProperties>
            <BoundPropertyBool Name="automatic" Value="false" />
            <BoundPropertyFloatSet Name="color">
              <BoundPropertyFloatElement Value="1" />
              <BoundPropertyFloatElement Value="1" />
              <BoundPropertyFloatElement Value="1" />
            </BoundPropertyFloatSet>
            <BoundPropertyStringSet Name="family">
              <BoundPropertyStringElement Value="Cambria" />
            </BoundPropertyStringSet>
            <BoundPropertyBool Name="horizontal" Value="true" />
            <BoundPropertyStringSet Name="justify">
              <BoundPropertyStringElement Value="BEGIN" />
            </BoundPropertyStringSet>
            <BoundPropertyBool Name="leftToRight" Value="true" />
            <BoundPropertyFloatSet Name="length" />
            <BoundPropertyFloat Name="maxExtent" Value="0" />
            <BoundPropertyFloatSet Name="outlineColor">
              <BoundPropertyFloatElement Value="0.64705884456634521" />
              <BoundPropertyFloatElement Value="0.64705884456634521" />
              <BoundPropertyFloatElement Value="0.64705884456634521" />
            </BoundPropertyFloatSet>
            <BoundPropertyInt Name="outlineSizeIndex" Value="0" />
            <BoundPropertyFloatSet Name="position">
              <BoundPropertyFloatElement Value="0.97816610336303711" />
              <BoundPropertyFloatElement Value="0.90697669982910156" />
              <BoundPropertyFloatElement Value="0.02500000037252903" />
            </BoundPropertyFloatSet>
            <BoundPropertyFloat Name="size" Value="0.30000001192092896" />
            <BoundPropertyStringSet Name="string">
              <BoundPropertyStringElement Value="RÃ‰ALISATEUR" />
              <BoundPropertyStringElement Value="" />
              <BoundPropertyStringElement Value="[Entrez votre nom ici]" />
            </BoundPropertyStringSet>
            <BoundPropertyString Name="style" Value="Plain" />
            <BoundPropertyFloat Name="transparency" Value="0" />
          </BoundProperties>
        </TextEffect>
      </Effects>
      <Transitions />
      <BoundProperties>
        <BoundPropertyFloatSet Name="diffuseColor">
          <BoundPropertyFloatElement Value="0.75" />
          <BoundPropertyFloatElement Value="1" />
          <BoundPropertyFloatElement Value="0" />
        </BoundPropertyFloatSet>
        <BoundPropertyFloat Name="transparency" Value="1" />
      </BoundProperties>
    </TitleClip>
    <AudioClip extentID="20" gapBefore="0" mediaItemID="4" inTime="0" outTime="0" speed="1">
      <Effects />
      <Transitions />
      <BoundProperties>
        <BoundPropertyBool Name="Mute" Value="false" />
        <BoundPropertyFloat Name="Volume" Value="2" />
      </BoundProperties>
    </AudioClip>
    <VideoClip extentID="55" gapBefore="0" mediaItemID="2" inTime="178.90000000000001" outTime="192.09999999999999" speed="1.5" stabilizationMode="0">
      <Effects>
        <ShaderEffect effectTemplateID="BrightnessEffectTemplate">
          <BoundProperties>
            <BoundPropertyFloat Name="brightness" Value="1.0895694494247437" />
          </BoundProperties>
        </ShaderEffect>
      </Effects>
      <Transitions>
        <ShapeEffect effectTemplateID="BlurTransitionTemplate" duration="1.5">
          <BoundProperties />
        </ShapeEffect>
      </Transitions>
      <BoundProperties>
        <BoundPropertyBool Name="Mute" Value="false" />
        <BoundPropertyInt Name="rotateStepNinety" Value="0" />
        <BoundPropertyFloat Name="Volume" Value="0" />
      </BoundProperties>
    </VideoClip>
    <TitleClip extentID="21" gapBefore="40.283482368443657" duration="7">
      <Effects>
        <TextEffect effectTemplateID="TextEffectCinematicCreditsLeftTemplate" TextScriptId="15">
          <BoundProperties>
            <BoundPropertyBool Name="automatic" Value="false" />
            <BoundPropertyFloatSet Name="color">
              <BoundPropertyFloatElement Value="1" />
              <BoundPropertyFloatElement Value="1" />
              <BoundPropertyFloatElement Value="1" />
            </BoundPropertyFloatSet>
            <BoundPropertyStringSet Name="family">
              <BoundPropertyStringElement Value="Cambria" />
            </BoundPropertyStringSet>
            <BoundPropertyBool Name="horizontal" Value="true" />
            <BoundPropertyStringSet Name="justify">
              <BoundPropertyStringElement Value="END" />
            </BoundPropertyStringSet>
            <BoundPropertyBool Name="leftToRight" Value="true" />
            <BoundPropertyFloatSet Name="length" />
            <BoundPropertyFloat Name="maxExtent" Value="0" />
            <BoundPropertyFloatSet Name="outlineColor">
              <BoundPropertyFloatElement Value="0.64705884456634521" />
              <BoundPropertyFloatElement Value="0.64705884456634521" />
              <BoundPropertyFloatElement Value="0.64705884456634521" />
            </BoundPropertyFloatSet>
            <BoundPropertyInt Name="outlineSizeIndex" Value="0" />
            <BoundPropertyFloatSet Name="position">
              <BoundPropertyFloatElement Value="-1.0014557838439941" />
              <BoundPropertyFloatElement Value="0.90697669982910156" />
              <BoundPropertyFloatElement Value="0.02500000037252903" />
            </BoundPropertyFloatSet>
            <BoundPropertyFloat Name="size" Value="0.30000001192092896" />
            <BoundPropertyStringSet Name="string">
              <BoundPropertyStringElement Value="DISTRIBUTION" />
              <BoundPropertyStringElement Value="" />
              <BoundPropertyStringElement Value="[Entrez la distribution ici]" />
            </BoundPropertyStringSet>
            <BoundPropertyString Name="style" Value="Plain" />
            <BoundPropertyFloat Name="transparency" Value="0" />
          </BoundProperties>
        </TextEffect>
      </Effects>
      <Transitions />
      <BoundProperties>
        <BoundPropertyFloatSet Name="diffuseColor">
          <BoundPropertyFloatElement Value="0.75" />
          <BoundPropertyFloatElement Value="1" />
          <BoundPropertyFloatElement Value="0" />
        </BoundPropertyFloatSet>
        <BoundPropertyFloat Name="transparency" Value="1" />
      </BoundProperties>
    </TitleClip>
    <TitleClip extentID="22" gapBefore="-0.435032586557071" duration="7">
      <Effects>
        <TextEffect effectTemplateID="TextEffectCinematicCreditsLeftTemplate" TextScriptId="15">
          <BoundProperties>
            <BoundPropertyBool Name="automatic" Value="false" />
            <BoundPropertyFloatSet Name="color">
              <BoundPropertyFloatElement Value="1" />
              <BoundPropertyFloatElement Value="1" />
              <BoundPropertyFloatElement Value="1" />
            </BoundPropertyFloatSet>
            <BoundPropertyStringSet Name="family">
              <BoundPropertyStringElement Value="Cambria" />
            </BoundPropertyStringSet>
            <BoundPropertyBool Name="horizontal" Value="true" />
            <BoundPropertyStringSet Name="justify">
              <BoundPropertyStringElement Value="END" />
            </BoundPropertyStringSet>
            <BoundPropertyBool Name="leftToRight" Value="true" />
            <BoundPropertyFloatSet Name="length" />
            <BoundPropertyFloat Name="maxExtent" Value="0" />
            <BoundPropertyFloatSet Name="outlineColor">
              <BoundPropertyFloatElement Value="0.64705884456634521" />
              <BoundPropertyFloatElement Value="0.64705884456634521" />
              <BoundPropertyFloatElement Value="0.64705884456634521" />
            </BoundPropertyFloatSet>
            <BoundPropertyInt Name="outlineSizeIndex" Value="0" />
            <BoundPropertyFloatSet Name="position">
              <BoundPropertyFloatElement Value="-1.0014557838439941" />
              <BoundPropertyFloatElement Value="0.90697669982910156" />
              <BoundPropertyFloatElement Value="0.02500000037252903" />
            </BoundPropertyFloatSet>
            <BoundPropertyFloat Name="size" Value="0.30000001192092896" />
            <BoundPropertyStringSet Name="string">
              <BoundPropertyStringElement Value="LIEUX DE TOURNAGE" />
              <BoundPropertyStringElement Value="" />
              <BoundPropertyStringElement Value="[Entrez les lieux de tournage ici]" />
            </BoundPropertyStringSet>
            <BoundPropertyString Name="style" Value="Plain" />
            <BoundPropertyFloat Name="transparency" Value="0" />
          </BoundProperties>
        </TextEffect>
      </Effects>
      <Transitions />
      <BoundProperties>
        <BoundPropertyFloatSet Name="diffuseColor">
          <BoundPropertyFloatElement Value="0.75" />
          <BoundPropertyFloatElement Value="1" />
          <BoundPropertyFloatElement Value="0" />
        </BoundPropertyFloatSet>
        <BoundPropertyFloat Name="transparency" Value="1" />
      </BoundProperties>
    </TitleClip>
    <VideoClip extentID="5" gapBefore="0" mediaItemID="1" inTime="17.399999999999999" outTime="26.566666666666666" speed="1" stabilizationMode="0">
      <Effects>
        <ShaderEffect effectTemplateID="BrightnessEffectTemplate">
          <BoundProperties>
            <BoundPropertyFloat Name="brightness" Value="1.2476089000701904" />
          </BoundProperties>
        </ShaderEffect>
      </Effects>
      <Transitions>
        <ShapeEffect effectTemplateID="FlipTransitionTemplate" duration="1.5">
          <BoundProperties />
        </ShapeEffect>
      </Transitions>
      <BoundProperties>
        <BoundPropertyBool Name="Mute" Value="false" />
        <BoundPropertyInt Name="rotateStepNinety" Value="0" />
        <BoundPropertyFloat Name="Volume" Value="1" />
      </BoundProperties>
    </VideoClip>
    <TitleClip extentID="6" gapBefore="-2.1128471493721008" duration="3.6128471493721008">
      <Effects>
        <TextEffect effectTemplateID="TextEffectBigZoomTemplate" TextScriptId="10">
          <BoundProperties>
            <BoundPropertyBool Name="automatic" Value="false" />
            <BoundPropertyFloatSet Name="color">
              <BoundPropertyFloatElement Value="1" />
              <BoundPropertyFloatElement Value="1" />
              <BoundPropertyFloatElement Value="1" />
            </BoundPropertyFloatSet>
            <BoundPropertyStringSet Name="family">
              <BoundPropertyStringElement Value="Cambria" />
            </BoundPropertyStringSet>
            <BoundPropertyBool Name="horizontal" Value="true" />
            <BoundPropertyStringSet Name="justify">
              <BoundPropertyStringElement Value="MIDDLE" />
            </BoundPropertyStringSet>
            <BoundPropertyBool Name="leftToRight" Value="true" />
            <BoundPropertyFloatSet Name="length" />
            <BoundPropertyFloat Name="maxExtent" Value="0" />
            <BoundPropertyFloatSet Name="outlineColor">
              <BoundPropertyFloatElement Value="0.64705884456634521" />
              <BoundPropertyFloatElement Value="0.64705884456634521" />
              <BoundPropertyFloatElement Value="0.64705884456634521" />
            </BoundPropertyFloatSet>
            <BoundPropertyInt Name="outlineSizeIndex" Value="0" />
            <BoundPropertyFloatSet Name="position">
              <BoundPropertyFloatElement Value="-0.27947616577148438" />
              <BoundPropertyFloatElement Value="1.3023256063461304" />
              <BoundPropertyFloatElement Value="0.02500000037252903" />
            </BoundPropertyFloatSet>
            <BoundPropertyFloat Name="size" Value="0.5" />
            <BoundPropertyStringSet Name="string">
              <BoundPropertyStringElement Value="SÃ©paration et " />
              <BoundPropertyStringElement Value="remplacement " />
              <BoundPropertyStringElement Value="d'une vitre " />
              <BoundPropertyStringElement Value="d'Ã©cran tactile" />
            </BoundPropertyStringSet>
            <BoundPropertyString Name="style" Value="Plain" />
            <BoundPropertyFloat Name="transparency" Value="0" />
          </BoundProperties>
        </TextEffect>
      </Effects>
      <Transitions />
      <BoundProperties>
        <BoundPropertyFloatSet Name="diffuseColor">
          <BoundPropertyFloatElement Value="0.75" />
          <BoundPropertyFloatElement Value="1" />
          <BoundPropertyFloatElement Value="0" />
        </BoundPropertyFloatSet>
        <BoundPropertyFloat Name="transparency" Value="1" />
      </BoundProperties>
    </TitleClip>
    <TitleClip extentID="23" gapBefore="0" duration="7">
      <Effects>
        <TextEffect effectTemplateID="TextEffectCinematicCreditsRightTemplate" TextScriptId="16">
          <BoundProperties>
            <BoundPropertyBool Name="automatic" Value="false" />
            <BoundPropertyFloatSet Name="color">
              <BoundPropertyFloatElement Value="1" />
              <BoundPropertyFloatElement Value="1" />
              <BoundPropertyFloatElement Value="1" />
            </BoundPropertyFloatSet>
            <BoundPropertyStringSet Name="family">
              <BoundPropertyStringElement Value="Cambria" />
            </BoundPropertyStringSet>
            <BoundPropertyBool Name="horizontal" Value="true" />
            <BoundPropertyStringSet Name="justify">
              <BoundPropertyStringElement Value="BEGIN" />
            </BoundPropertyStringSet>
            <BoundPropertyBool Name="leftToRight" Value="true" />
            <BoundPropertyFloatSet Name="length" />
            <BoundPropertyFloat Name="maxExtent" Value="0" />
            <BoundPropertyFloatSet Name="outlineColor">
              <BoundPropertyFloatElement Value="0.64705884456634521" />
              <BoundPropertyFloatElement Value="0.64705884456634521" />
              <BoundPropertyFloatElement Value="0.64705884456634521" />
            </BoundPropertyFloatSet>
            <BoundPropertyInt Name="outlineSizeIndex" Value="0" />
            <BoundPropertyFloatSet Name="position">
              <BoundPropertyFloatElement Value="-1.702019214630127" />
              <BoundPropertyFloatElement Value="0.90697669982910156" />
              <BoundPropertyFloatElement Value="0.02500000037252903" />
            </BoundPropertyFloatSet>
            <BoundPropertyFloat Name="size" Value="0.30000001192092896" />
            <BoundPropertyStringSet Name="string">
              <BoundPropertyStringElement Value="BANDE SONORE" />
              <BoundPropertyStringElement Value="" />
              <BoundPropertyStringElement Value="[Entrez les informations relatives Ã  la bande sonore ici]" />
            </BoundPropertyStringSet>
            <BoundPropertyString Name="style" Value="Plain" />
            <BoundPropertyFloat Name="transparency" Value="0" />
          </BoundProperties>
        </TextEffect>
      </Effects>
      <Transitions />
      <BoundProperties>
        <BoundPropertyFloatSet Name="diffuseColor">
          <BoundPropertyFloatElement Value="0.75" />
          <BoundPropertyFloatElement Value="1" />
          <BoundPropertyFloatElement Value="0" />
        </BoundPropertyFloatSet>
        <BoundPropertyFloat Name="transparency" Value="1" />
      </BoundProperties>
    </TitleClip>
    <VideoClip extentID="7" gapBefore="0" mediaItemID="2" inTime="2.2666666666666657" outTime="10.066666666666666" speed="1.5" stabilizationMode="0">
      <Effects>
        <ShaderEffect effectTemplateID="BrightnessEffectTemplate">
          <BoundProperties>
            <BoundPropertyFloat Name="brightness" Value="1.0895694494247437" />
          </BoundProperties>
        </ShaderEffect>
      </Effects>
      <Transitions>
        <ShapeEffect effectTemplateID="CrossfadeTransitionTemplate" duration="1.5">
          <BoundProperties />
        </ShapeEffect>
      </Transitions>
      <BoundProperties>
        <BoundPropertyBool Name="Mute" Value="false" />
        <BoundPropertyInt Name="rotateStepNinety" Value="0" />
        <BoundPropertyFloat Name="Volume" Value="0" />
      </BoundProperties>
    </VideoClip>
    <VideoClip extentID="42" gapBefore="0" mediaItemID="2" inTime="133.53333333333333" outTime="141.90000000000001" speed="1.5" stabilizationMode="0">
      <Effects>
        <ShaderEffect effectTemplateID="BrightnessEffectTemplate">
          <BoundProperties>
            <BoundPropertyFloat Name="brightness" Value="1.0895694494247437" />
          </BoundProperties>
        </ShaderEffect>
        <PanAndZoomShapeEffect effectTemplateID="PanAndZoomEffectZoomOutBottomLeftToFullTemplate">
          <BoundProperties>
            <BoundPropertyInt Name="effectType" Value="6" />
          </BoundProperties>
        </PanAndZoomShapeEffect>
      </Effects>
      <Transitions>
        <ShapeEffect effectTemplateID="BlurThroughBlackTransitionTemplate" duration="1">
          <BoundProperties />
        </ShapeEffect>
      </Transitions>
      <BoundProperties>
        <BoundPropertyBool Name="Mute" Value="false" />
        <BoundPropertyInt Name="rotateStepNinety" Value="0" />
        <BoundPropertyFloat Name="Volume" Value="0" />
      </BoundProperties>
    </VideoClip>
    <VideoClip extentID="26" gapBefore="0" mediaItemID="2" inTime="10.066666666666666" outTime="14.166666666666666" speed="1.5" stabilizationMode="0">
      <Effects>
        <ShaderEffect effectTemplateID="BrightnessEffectTemplate">
          <BoundProperties>
            <BoundPropertyFloat Name="brightness" Value="1.0895694494247437" />
          </BoundProperties>
        </ShaderEffect>
        <PanAndZoomShapeEffect effectTemplateID="PanAndZoomEffectPanBottomToTopAlongRightTemplate">
          <BoundProperties>
            <BoundPropertyInt Name="effectType" Value="4" />
          </BoundProperties>
        </PanAndZoomShapeEffect>
      </Effects>
      <Transitions>
        <ShapeEffect effectTemplateID="BlurTransitionTemplate" duration="1.5">
          <BoundProperties />
        </ShapeEffect>
      </Transitions>
      <BoundProperties>
        <BoundPropertyBool Name="Mute" Value="false" />
        <BoundPropertyInt Name="rotateStepNinety" Value="0" />
        <BoundPropertyFloat Name="Volume" Value="0" />
      </BoundProperties>
    </VideoClip>
    <VideoClip extentID="43" gapBefore="0" mediaItemID="2" inTime="288.39999999999998" outTime="302.19999999999993" speed="1.5" stabilizationMode="0">
      <Effects>
        <ShaderEffect effectTemplateID="BrightnessEffectTemplate">
          <BoundProperties>
            <BoundPropertyFloat Name="brightness" Value="1.0895694494247437" />
          </BoundProperties>
        </ShaderEffect>
      </Effects>
      <Transitions>
        <ShapeEffect effectTemplateID="BlurTransitionTemplate" duration="1.5">
          <BoundProperties />
        </ShapeEffect>
      </Transitions>
      <BoundProperties>
        <BoundPropertyBool Name="Mute" Value="false" />
        <BoundPropertyInt Name="rotateStepNinety" Value="0" />
        <BoundPropertyFloat Name="Volume" Value="0" />
      </BoundProperties>
    </VideoClip>
    <TitleClip extentID="10" gapBefore="0" duration="7">
      <Effects />
      <Transitions />
      <BoundProperties>
        <BoundPropertyFloatSet Name="diffuseColor">
          <BoundPropertyFloatElement Value="0" />
          <BoundPropertyFloatElement Value="0" />
          <BoundPropertyFloatElement Value="0" />
        </BoundPropertyFloatSet>
        <BoundPropertyFloat Name="transparency" Value="0" />
      </BoundProperties>
    </TitleClip>
    <TitleClip extentID="12" gapBefore="0" duration="6">
      <Effects />
      <Transitions>
        <ShapeEffect effectTemplateID="BlurThroughBlackTransitionTemplate" duration="1.5">
          <BoundProperties />
        </ShapeEffect>
      </Transitions>
      <BoundProperties>
        <BoundPropertyFloatSet Name="diffuseColor">
          <BoundPropertyFloatElement Value="0.21568627655506134" />
          <BoundPropertyFloatElement Value="0.37647059559822083" />
          <BoundPropertyFloatElement Value="0.56862747669219971" />
        </BoundPropertyFloatSet>
        <BoundPropertyFloat Name="transparency" Value="0" />
      </BoundProperties>
    </TitleClip>
    <VideoClip extentID="30" gapBefore="0" mediaItemID="2" inTime="14.166666666666666" outTime="16.066666666666663" speed="1.5" stabilizationMode="0">
      <Effects>
        <ShaderEffect effectTemplateID="BrightnessEffectTemplate">
          <BoundProperties>
            <BoundPropertyFloat Name="brightness" Value="1.0895694494247437" />
          </BoundProperties>
        </ShaderEffect>
      </Effects>
      <Transitions />
      <BoundProperties>
        <BoundPropertyBool Name="Mute" Value="false" />
        <BoundPropertyInt Name="rotateStepNinety" Value="0" />
        <BoundPropertyFloat Name="Volume" Value="1" />
      </BoundProperties>
    </VideoClip>
    <TitleClip extentID="13" gapBefore="0" duration="4.5">
      <Effects>
        <TextEffect effectTemplateID="TextEffectStretchTemplate" TextScriptId="2">
          <BoundProperties>
            <BoundPropertyBool Name="automatic" Value="false" />
            <BoundPropertyFloatSet Name="color">
              <BoundPropertyFloatElement Value="1" />
              <BoundPropertyFloatElement Value="1" />
              <BoundPropertyFloatElement Value="1" />
            </BoundPropertyFloatSet>
            <BoundPropertyStringSet Name="family">
              <BoundPropertyStringElement Value="Cambria" />
            </BoundPropertyStringSet>
            <BoundPropertyBool Name="horizontal" Value="true" />
            <BoundPropertyStringSet Name="justify">
              <BoundPropertyStringElement Value="BEGIN" />
            </BoundPropertyStringSet>
            <BoundPropertyBool Name="leftToRight" Value="true" />
            <BoundPropertyFloatSet Name="length" />
            <BoundPropertyFloat Name="maxExtent" Value="0" />
            <BoundPropertyFloatSet Name="outlineColor">
              <BoundPropertyFloatElement Value="0.64705884456634521" />
              <BoundPropertyFloatElement Value="0.64705884456634521" />
              <BoundPropertyFloatElement Value="0.64705884456634521" />
            </BoundPropertyFloatSet>
            <BoundPropertyInt Name="outlineSizeIndex" Value="0" />
            <BoundPropertyFloatSet Name="position">
              <BoundPropertyFloatElement Value="-3.2372636795043945" />
              <BoundPropertyFloatElement Value="2.7209300994873047" />
              <BoundPropertyFloatElement Value="0.02500000037252903" />
            </BoundPropertyFloatSet>
            <BoundPropertyFloat Name="size" Value="0.5" />
            <BoundPropertyStringSet Name="string">
              <BoundPropertyStringElement Value="Repare-Mobile.com prÃ©sente" />
            </BoundPropertyStringSet>
            <BoundPropertyString Name="style" Value="Plain" />
            <BoundPropertyFloat Name="transparency" Value="0" />
          </BoundProperties>
        </TextEffect>
      </Effects>
      <Transitions />
      <BoundProperties>
        <BoundPropertyFloatSet Name="diffuseColor">
          <BoundPropertyFloatElement Value="0.75" />
          <BoundPropertyFloatElement Value="1" />
          <BoundPropertyFloatElement Value="0" />
        </BoundPropertyFloatSet>
        <BoundPropertyFloat Name="transparency" Value="1" />
      </BoundProperties>
    </TitleClip>
    <VideoClip extentID="47" gapBefore="0" mediaItemID="2" inTime="308.84999999999997" outTime="323.25" speed="1.5" stabilizationMode="0">
      <Effects>
        <ShaderEffect effectTemplateID="BrightnessEffectTemplate">
          <BoundProperties>
            <BoundPropertyFloat Name="brightness" Value="1.0895694494247437" />
          </BoundProperties>
        </ShaderEffect>
      </Effects>
      <Transitions>
        <ShapeEffect effectTemplateID="BlurTransitionTemplate" duration="1.5">
          <BoundProperties />
        </ShapeEffect>
      </Transitions>
      <BoundProperties>
        <BoundPropertyBool Name="Mute" Value="false" />
        <BoundPropertyInt Name="rotateStepNinety" Value="0" />
        <BoundPropertyFloat Name="Volume" Value="0" />
      </BoundProperties>
    </VideoClip>
    <VideoClip extentID="33" gapBefore="0" mediaItemID="2" inTime="59.283333333333331" outTime="69.299999999999997" speed="1.5" stabilizationMode="0">
      <Effects>
        <ShaderEffect effectTemplateID="BrightnessEffectTemplate">
          <BoundProperties>
            <BoundPropertyFloat Name="brightness" Value="1.0895694494247437" />
          </BoundProperties>
        </ShaderEffect>
      </Effects>
      <Transitions>
        <ShapeEffect effectTemplateID="BlurTransitionTemplate" duration="1.5">
          <BoundProperties />
        </ShapeEffect>
      </Transitions>
      <BoundProperties>
        <BoundPropertyBool Name="Mute" Value="false" />
        <BoundPropertyInt Name="rotateStepNinety" Value="0" />
        <BoundPropertyFloat Name="Volume" Value="0" />
      </BoundProperties>
    </VideoClip>
    <TitleClip extentID="16" gapBefore="0" duration="7">
      <Effects />
      <Transitions>
        <ShapeEffect effectTemplateID="BlurTransitionTemplate" duration="1.5">
          <BoundProperties />
        </ShapeEffect>
      </Transitions>
      <BoundProperties>
        <BoundPropertyFloatSet Name="diffuseColor">
          <BoundPropertyFloatElement Value="0" />
          <BoundPropertyFloatElement Value="0" />
          <BoundPropertyFloatElement Value="0" />
        </BoundPropertyFloatSet>
        <BoundPropertyFloat Name="transparency" Value="0" />
      </BoundProperties>
    </TitleClip>
    <ExtentSelector extentID="1" gapBefore="0" primaryTrack="true">
      <Effects />
      <Transitions />
      <BoundProperties />
      <ExtentRefs>
        <ExtentRef id="12" />
        <ExtentRef id="7" />
        <ExtentRef id="26" />
        <ExtentRef id="35" />
        <ExtentRef id="33" />
        <ExtentRef id="42" />
        <ExtentRef id="51" />
        <ExtentRef id="55" />
        <ExtentRef id="43" />
        <ExtentRef id="47" />
        <ExtentRef id="52" />
        <ExtentRef id="16" />
        <ExtentRef id="17" />
        <ExtentRef id="18" />
        <ExtentRef id="19" />
        <ExtentRef id="5" />
        <ExtentRef id="30" />
        <ExtentRef id="10" />
      </ExtentRefs>
    </ExtentSelector>
    <ExtentSelector extentID="2" gapBefore="0" primaryTrack="false">
      <Effects />
      <Transitions />
      <BoundProperties />
      <ExtentRefs>
        <ExtentRef id="20" />
      </ExtentRefs>
    </ExtentSelector>
    <ExtentSelector extentID="3" gapBefore="0" primaryTrack="false">
      <Effects />
      <Transitions />
      <BoundProperties />
      <ExtentRefs />
    </ExtentSelector>
    <ExtentSelector extentID="4" gapBefore="0" primaryTrack="false">
      <Effects />
      <Transitions />
      <BoundProperties />
      <ExtentRefs>
        <ExtentRef id="13" />
        <ExtentRef id="6" />
        <ExtentRef id="53" />
        <ExtentRef id="21" />
        <ExtentRef id="22" />
        <ExtentRef id="23" />
      </ExtentRefs>
    </ExtentSelector>
  </Extents>
  <BoundPlaceholders>
    <BoundPlaceholder placeholderID="SingleExtentView" extentID="0" />
    <BoundPlaceholder placeholderID="Main" extentID="1" />
    <BoundPlaceholder placeholderID="SoundTrack" extentID="2" />
    <BoundPlaceholder placeholderID="Text" extentID="4" />
    <BoundPlaceholder placeholderID="Narration" extentID="3" />
  </BoundPlaceholders>
  <BoundProperties>
    <BoundPropertyFloatSet Name="AspectRatio">
      <BoundPropertyFloatElement Value="1.7777776718139648" />
    </BoundPropertyFloatSet>
    <BoundPropertyFloat Name="DuckedNarrationAndSoundTrackMix" Value="1" />
    <BoundPropertyFloat Name="DuckedVideoAndNarrationMix" Value="0" />
    <BoundPropertyFloat Name="DuckedVideoAndSoundTrackMix" Value="0.5" />
    <BoundPropertyFloat Name="SoundTrackMix" Value="0.5" />
  </BoundProperties>
  <ThemeOperationLog themeID="2">
    <MonolithicThemeOperations />
  </ThemeOperationLog>
  <AudioDuckingProperties emphasisPlaceholderID="SoundTrack" />
</Project>